<svg width="45" height="57" viewBox="0 0 45 57" fill="none" xmlns="http://www.w3.org/2000/svg">
<rect width="45" height="57" rx="5" fill="#DD4141"/>
<path d="M31.862 20.896C31.6473 20.6813 31.2487 20.39 30.666 20.022C30.114 19.654 29.424 19.3013 28.596 18.964C27.7987 18.6267 26.9247 18.3353 25.974 18.09C25.0233 17.814 24.0573 17.676 23.076 17.676C21.3587 17.676 20.0553 17.998 19.166 18.642C18.3073 19.286 17.878 20.1907 17.878 21.356C17.878 22.2453 18.154 22.9507 18.706 23.472C19.258 23.9933 20.086 24.438 21.19 24.806C22.294 25.174 23.674 25.5727 25.33 26.002C27.4767 26.5233 29.332 27.1673 30.896 27.934C32.4907 28.67 33.702 29.6513 34.53 30.878C35.3887 32.074 35.818 33.6687 35.818 35.662C35.818 37.41 35.496 38.9127 34.852 40.17C34.208 41.3967 33.3187 42.3933 32.184 43.16C31.0493 43.9267 29.7613 44.494 28.32 44.862C26.8787 45.1993 25.3453 45.368 23.72 45.368C22.0947 45.368 20.4693 45.1993 18.844 44.862C17.2187 44.5247 15.6547 44.0493 14.152 43.436C12.6493 42.792 11.2693 42.0253 10.012 41.136L12.818 35.662C13.094 35.938 13.5847 36.306 14.29 36.766C14.9953 37.1953 15.854 37.64 16.866 38.1C17.878 38.5293 18.982 38.8973 20.178 39.204C21.374 39.5107 22.5853 39.664 23.812 39.664C25.5293 39.664 26.8327 39.3727 27.722 38.79C28.6113 38.2073 29.056 37.3793 29.056 36.306C29.056 35.3247 28.7033 34.558 27.998 34.006C27.2927 33.454 26.3113 32.9787 25.054 32.58C23.7967 32.1507 22.3093 31.6907 20.592 31.2C18.5373 30.6173 16.82 29.9733 15.44 29.268C14.06 28.532 13.0327 27.612 12.358 26.508C11.6833 25.404 11.346 24.024 11.346 22.368C11.346 20.1293 11.8673 18.2587 12.91 16.756C13.9833 15.2227 15.4247 14.0727 17.234 13.306C19.0433 12.5087 21.052 12.11 23.26 12.11C24.7933 12.11 26.2347 12.2787 27.584 12.616C28.964 12.9533 30.252 13.398 31.448 13.95C32.644 14.502 33.7173 15.1 34.668 15.744L31.862 20.896Z" fill="#FAFAFA"/>
</svg>
