<svg width="392" height="57" viewBox="0 0 392 57" fill="none" xmlns="http://www.w3.org/2000/svg">
<path d="M71.208 45H65.044V31.476C65.044 29.544 64.7067 28.1333 64.032 27.244C63.3573 26.3547 62.422 25.91 61.226 25.91C60.398 25.91 59.5547 26.1247 58.696 26.554C57.868 26.9833 57.1167 27.5813 56.442 28.348C55.7673 29.084 55.2767 29.9427 54.97 30.924V45H48.806V20.896H54.372V25.358C54.9853 24.3153 55.7673 23.4413 56.718 22.736C57.6687 22 58.7573 21.448 59.984 21.08C61.2413 20.6813 62.56 20.482 63.94 20.482C65.4427 20.482 66.6693 20.758 67.62 21.31C68.6013 21.8313 69.3373 22.552 69.828 23.472C70.3493 24.3613 70.702 25.3733 70.886 26.508C71.1007 27.6427 71.208 28.7927 71.208 29.958V45ZM87.7457 45.46C85.8137 45.46 84.0657 45.138 82.5017 44.494C80.9377 43.8193 79.6037 42.9147 78.4997 41.78C77.3957 40.6147 76.5371 39.296 75.9237 37.824C75.3411 36.3213 75.0497 34.742 75.0497 33.086C75.0497 30.786 75.5557 28.6853 76.5677 26.784C77.6104 24.8827 79.0824 23.3647 80.9837 22.23C82.9157 21.0647 85.1851 20.482 87.7917 20.482C90.4291 20.482 92.6831 21.0647 94.5537 22.23C96.4244 23.3647 97.8504 24.8827 98.8317 26.784C99.8437 28.6547 100.35 30.6787 100.35 32.856C100.35 33.224 100.334 33.6073 100.304 34.006C100.273 34.374 100.242 34.6807 100.212 34.926H81.5817C81.7044 36.1527 82.0571 37.226 82.6397 38.146C83.2531 39.066 84.0197 39.7713 84.9397 40.262C85.8904 40.722 86.9024 40.952 87.9757 40.952C89.2024 40.952 90.3524 40.6607 91.4257 40.078C92.5297 39.4647 93.2811 38.6673 93.6797 37.686L98.9697 39.158C98.3871 40.3847 97.5437 41.4733 96.4397 42.424C95.3664 43.3747 94.0937 44.126 92.6217 44.678C91.1497 45.1993 89.5244 45.46 87.7457 45.46ZM81.4437 31.016H94.0477C93.9251 29.7893 93.5724 28.7313 92.9897 27.842C92.4377 26.922 91.7017 26.2167 90.7817 25.726C89.8617 25.2047 88.8344 24.944 87.6997 24.944C86.5957 24.944 85.5837 25.2047 84.6637 25.726C83.7744 26.2167 83.0384 26.922 82.4557 27.842C81.9037 28.7313 81.5664 29.7893 81.4437 31.016ZM102.449 37.87C102.449 36.306 102.878 34.9413 103.737 33.776C104.626 32.58 105.853 31.66 107.417 31.016C108.981 30.372 110.775 30.05 112.799 30.05C113.811 30.05 114.838 30.1267 115.881 30.28C116.923 30.4333 117.828 30.6787 118.595 31.016V29.728C118.595 28.1947 118.135 27.014 117.215 26.186C116.325 25.358 114.991 24.944 113.213 24.944C111.894 24.944 110.637 25.174 109.441 25.634C108.245 26.094 106.987 26.7687 105.669 27.658L103.691 23.61C105.285 22.5673 106.911 21.7853 108.567 21.264C110.253 20.7427 112.017 20.482 113.857 20.482C117.291 20.482 119.959 21.3407 121.861 23.058C123.793 24.7753 124.759 27.2287 124.759 30.418V38.1C124.759 38.744 124.866 39.204 125.081 39.48C125.326 39.756 125.709 39.9247 126.231 39.986V45C125.679 45.092 125.173 45.1687 124.713 45.23C124.283 45.2913 123.915 45.322 123.609 45.322C122.382 45.322 121.447 45.046 120.803 44.494C120.189 43.942 119.806 43.2673 119.653 42.47L119.515 41.228C118.472 42.5773 117.169 43.62 115.605 44.356C114.041 45.092 112.446 45.46 110.821 45.46C109.226 45.46 107.785 45.138 106.497 44.494C105.239 43.8193 104.243 42.9147 103.507 41.78C102.801 40.6147 102.449 39.3113 102.449 37.87ZM117.445 39.112C117.782 38.744 118.058 38.376 118.273 38.008C118.487 37.64 118.595 37.3027 118.595 36.996V34.558C117.859 34.2513 117.061 34.0213 116.203 33.868C115.344 33.684 114.531 33.592 113.765 33.592C112.17 33.592 110.851 33.9447 109.809 34.65C108.797 35.3247 108.291 36.2293 108.291 37.364C108.291 37.9773 108.459 38.56 108.797 39.112C109.134 39.664 109.625 40.1087 110.269 40.446C110.913 40.7833 111.679 40.952 112.569 40.952C113.489 40.952 114.393 40.7833 115.283 40.446C116.172 40.078 116.893 39.6333 117.445 39.112ZM146.987 45L139.949 34.604L136.683 37.824V45H130.519V11.42H136.683V31.752L146.389 20.942H152.921L143.951 31.154L153.565 45H146.987ZM166.089 45.46C164.157 45.46 162.409 45.138 160.845 44.494C159.281 43.8193 157.947 42.9147 156.843 41.78C155.739 40.6147 154.881 39.296 154.267 37.824C153.685 36.3213 153.393 34.742 153.393 33.086C153.393 30.786 153.899 28.6853 154.911 26.784C155.954 24.8827 157.426 23.3647 159.327 22.23C161.259 21.0647 163.529 20.482 166.135 20.482C168.773 20.482 171.027 21.0647 172.897 22.23C174.768 23.3647 176.194 24.8827 177.175 26.784C178.187 28.6547 178.693 30.6787 178.693 32.856C178.693 33.224 178.678 33.6073 178.647 34.006C178.617 34.374 178.586 34.6807 178.555 34.926H159.925C160.048 36.1527 160.401 37.226 160.983 38.146C161.597 39.066 162.363 39.7713 163.283 40.262C164.234 40.722 165.246 40.952 166.319 40.952C167.546 40.952 168.696 40.6607 169.769 40.078C170.873 39.4647 171.625 38.6673 172.023 37.686L177.313 39.158C176.731 40.3847 175.887 41.4733 174.783 42.424C173.71 43.3747 172.437 44.126 170.965 44.678C169.493 45.1993 167.868 45.46 166.089 45.46ZM159.787 31.016H172.391C172.269 29.7893 171.916 28.7313 171.333 27.842C170.781 26.922 170.045 26.2167 169.125 25.726C168.205 25.2047 167.178 24.944 166.043 24.944C164.939 24.944 163.927 25.2047 163.007 25.726C162.118 26.2167 161.382 26.922 160.799 27.842C160.247 28.7313 159.91 29.7893 159.787 31.016ZM196.801 26.232C194.93 26.232 193.259 26.6 191.787 27.336C190.315 28.0413 189.257 29.0687 188.613 30.418V45H182.449V20.896H188.107V26.048C188.965 24.392 190.054 23.0887 191.373 22.138C192.691 21.1873 194.087 20.666 195.559 20.574C195.896 20.574 196.157 20.574 196.341 20.574C196.525 20.574 196.678 20.5893 196.801 20.62V26.232ZM209.116 45.46C207.061 45.46 205.098 45.1227 203.228 44.448C201.357 43.7733 199.747 42.7767 198.398 41.458L200.606 37.456C202.047 38.6213 203.458 39.48 204.838 40.032C206.248 40.584 207.598 40.86 208.886 40.86C210.082 40.86 211.032 40.6453 211.738 40.216C212.474 39.7867 212.842 39.1427 212.842 38.284C212.842 37.7013 212.642 37.2567 212.244 36.95C211.845 36.6127 211.262 36.3213 210.496 36.076C209.76 35.8307 208.855 35.5547 207.782 35.248C206.003 34.6653 204.516 34.098 203.32 33.546C202.124 32.994 201.219 32.304 200.606 31.476C200.023 30.6173 199.732 29.5287 199.732 28.21C199.732 26.6153 200.13 25.2507 200.928 24.116C201.756 22.9507 202.89 22.046 204.332 21.402C205.804 20.758 207.521 20.436 209.484 20.436C211.201 20.436 212.826 20.712 214.36 21.264C215.893 21.7853 217.288 22.644 218.546 23.84L216.062 27.75C214.835 26.7993 213.67 26.1093 212.566 25.68C211.462 25.22 210.342 24.99 209.208 24.99C208.564 24.99 207.95 25.0667 207.368 25.22C206.816 25.3733 206.356 25.634 205.988 26.002C205.65 26.3393 205.482 26.83 205.482 27.474C205.482 28.0567 205.635 28.5167 205.942 28.854C206.279 29.1607 206.77 29.4367 207.414 29.682C208.088 29.9273 208.901 30.2033 209.852 30.51C211.784 31.062 213.409 31.6293 214.728 32.212C216.077 32.7947 217.089 33.5153 217.764 34.374C218.438 35.202 218.776 36.352 218.776 37.824C218.776 40.216 217.902 42.0867 216.154 43.436C214.406 44.7853 212.06 45.46 209.116 45.46ZM221.312 37.87C221.312 36.306 221.741 34.9413 222.6 33.776C223.489 32.58 224.716 31.66 226.28 31.016C227.844 30.372 229.638 30.05 231.662 30.05C232.674 30.05 233.701 30.1267 234.744 30.28C235.787 30.4333 236.691 30.6787 237.458 31.016V29.728C237.458 28.1947 236.998 27.014 236.078 26.186C235.189 25.358 233.855 24.944 232.076 24.944C230.757 24.944 229.5 25.174 228.304 25.634C227.108 26.094 225.851 26.7687 224.532 27.658L222.554 23.61C224.149 22.5673 225.774 21.7853 227.43 21.264C229.117 20.7427 230.88 20.482 232.72 20.482C236.155 20.482 238.823 21.3407 240.724 23.058C242.656 24.7753 243.622 27.2287 243.622 30.418V38.1C243.622 38.744 243.729 39.204 243.944 39.48C244.189 39.756 244.573 39.9247 245.094 39.986V45C244.542 45.092 244.036 45.1687 243.576 45.23C243.147 45.2913 242.779 45.322 242.472 45.322C241.245 45.322 240.31 45.046 239.666 44.494C239.053 43.942 238.669 43.2673 238.516 42.47L238.378 41.228C237.335 42.5773 236.032 43.62 234.468 44.356C232.904 45.092 231.309 45.46 229.684 45.46C228.089 45.46 226.648 45.138 225.36 44.494C224.103 43.8193 223.106 42.9147 222.37 41.78C221.665 40.6147 221.312 39.3113 221.312 37.87ZM236.308 39.112C236.645 38.744 236.921 38.376 237.136 38.008C237.351 37.64 237.458 37.3027 237.458 36.996V34.558C236.722 34.2513 235.925 34.0213 235.066 33.868C234.207 33.684 233.395 33.592 232.628 33.592C231.033 33.592 229.715 33.9447 228.672 34.65C227.66 35.3247 227.154 36.2293 227.154 37.364C227.154 37.9773 227.323 38.56 227.66 39.112C227.997 39.664 228.488 40.1087 229.132 40.446C229.776 40.7833 230.543 40.952 231.432 40.952C232.352 40.952 233.257 40.7833 234.146 40.446C235.035 40.078 235.756 39.6333 236.308 39.112ZM247.404 54.016C246.27 54.016 245.181 53.832 244.138 53.464C243.096 53.1267 242.145 52.59 241.286 51.854L243.954 47.668C244.292 48.036 244.706 48.2967 245.196 48.45C245.687 48.6033 246.178 48.68 246.668 48.68C247.22 48.68 247.711 48.542 248.14 48.266C248.6 48.0207 248.953 47.668 249.198 47.208C249.474 46.748 249.612 46.2267 249.612 45.644V20.896H255.776V45.184C255.776 46.9013 255.393 48.4347 254.626 49.784C253.89 51.1333 252.894 52.176 251.636 52.912C250.41 53.648 248.999 54.016 247.404 54.016ZM249.612 17.538V11.42H255.776V17.538H249.612ZM259.72 37.87C259.72 36.306 260.15 34.9413 261.008 33.776C261.898 32.58 263.124 31.66 264.688 31.016C266.252 30.372 268.046 30.05 270.07 30.05C271.082 30.05 272.11 30.1267 273.152 30.28C274.195 30.4333 275.1 30.6787 275.866 31.016V29.728C275.866 28.1947 275.406 27.014 274.486 26.186C273.597 25.358 272.263 24.944 270.484 24.944C269.166 24.944 267.908 25.174 266.712 25.634C265.516 26.094 264.259 26.7687 262.94 27.658L260.962 23.61C262.557 22.5673 264.182 21.7853 265.838 21.264C267.525 20.7427 269.288 20.482 271.128 20.482C274.563 20.482 277.231 21.3407 279.132 23.058C281.064 24.7753 282.03 27.2287 282.03 30.418V38.1C282.03 38.744 282.138 39.204 282.352 39.48C282.598 39.756 282.981 39.9247 283.502 39.986V45C282.95 45.092 282.444 45.1687 281.984 45.23C281.555 45.2913 281.187 45.322 280.88 45.322C279.654 45.322 278.718 45.046 278.074 44.494C277.461 43.942 277.078 43.2673 276.924 42.47L276.786 41.228C275.744 42.5773 274.44 43.62 272.876 44.356C271.312 45.092 269.718 45.46 268.092 45.46C266.498 45.46 265.056 45.138 263.768 44.494C262.511 43.8193 261.514 42.9147 260.778 41.78C260.073 40.6147 259.72 39.3113 259.72 37.87ZM274.716 39.112C275.054 38.744 275.33 38.376 275.544 38.008C275.759 37.64 275.866 37.3027 275.866 36.996V34.558C275.13 34.2513 274.333 34.0213 273.474 33.868C272.616 33.684 271.803 33.592 271.036 33.592C269.442 33.592 268.123 33.9447 267.08 34.65C266.068 35.3247 265.562 36.2293 265.562 37.364C265.562 37.9773 265.731 38.56 266.068 39.112C266.406 39.664 266.896 40.1087 267.54 40.446C268.184 40.7833 268.951 40.952 269.84 40.952C270.76 40.952 271.665 40.7833 272.554 40.446C273.444 40.078 274.164 39.6333 274.716 39.112ZM287.652 45V38.376H292.712V45H287.652ZM308.852 45.46C306.89 45.46 305.126 45.138 303.562 44.494C301.998 43.8193 300.664 42.8993 299.56 41.734C298.456 40.538 297.598 39.1887 296.984 37.686C296.402 36.1833 296.11 34.604 296.11 32.948C296.11 30.6787 296.616 28.6087 297.628 26.738C298.671 24.8367 300.143 23.3187 302.044 22.184C303.946 21.0493 306.2 20.482 308.806 20.482C311.413 20.482 313.652 21.0493 315.522 22.184C317.393 23.3187 318.788 24.806 319.708 26.646L313.682 28.486C313.161 27.5967 312.471 26.922 311.612 26.462C310.754 25.9713 309.803 25.726 308.76 25.726C307.595 25.726 306.522 26.0327 305.54 26.646C304.59 27.2287 303.838 28.072 303.286 29.176C302.734 30.2493 302.458 31.5067 302.458 32.948C302.458 34.3587 302.734 35.616 303.286 36.72C303.869 37.7933 304.636 38.652 305.586 39.296C306.537 39.9093 307.595 40.216 308.76 40.216C309.496 40.216 310.186 40.0933 310.83 39.848C311.505 39.6027 312.103 39.2653 312.624 38.836C313.146 38.4067 313.529 37.916 313.774 37.364L319.8 39.204C319.248 40.4 318.436 41.4733 317.362 42.424C316.32 43.3747 315.078 44.126 313.636 44.678C312.226 45.1993 310.631 45.46 308.852 45.46ZM334.501 45.46C332.538 45.46 330.775 45.138 329.211 44.494C327.647 43.8193 326.313 42.8993 325.209 41.734C324.135 40.5687 323.307 39.2347 322.725 37.732C322.142 36.2293 321.851 34.65 321.851 32.994C321.851 31.3073 322.142 29.7127 322.725 28.21C323.307 26.7073 324.135 25.3733 325.209 24.208C326.313 23.0427 327.647 22.138 329.211 21.494C330.775 20.8193 332.538 20.482 334.501 20.482C336.463 20.482 338.211 20.8193 339.745 21.494C341.309 22.138 342.643 23.0427 343.747 24.208C344.851 25.3733 345.679 26.7073 346.231 28.21C346.813 29.7127 347.105 31.3073 347.105 32.994C347.105 34.65 346.813 36.2293 346.231 37.732C345.679 39.2347 344.851 40.5687 343.747 41.734C342.673 42.8993 341.355 43.8193 339.791 44.494C338.227 45.138 336.463 45.46 334.501 45.46ZM328.199 32.994C328.199 34.4047 328.475 35.662 329.027 36.766C329.579 37.8393 330.33 38.6827 331.281 39.296C332.231 39.9093 333.305 40.216 334.501 40.216C335.666 40.216 336.724 39.9093 337.675 39.296C338.625 38.652 339.377 37.7933 339.929 36.72C340.511 35.616 340.803 34.3587 340.803 32.948C340.803 31.568 340.511 30.326 339.929 29.222C339.377 28.118 338.625 27.2593 337.675 26.646C336.724 26.0327 335.666 25.726 334.501 25.726C333.305 25.726 332.231 26.048 331.281 26.692C330.33 27.3053 329.579 28.164 329.027 29.268C328.475 30.3413 328.199 31.5833 328.199 32.994ZM388.709 45H382.545V31.476C382.545 29.5747 382.208 28.1793 381.533 27.29C380.889 26.37 379.984 25.91 378.819 25.91C377.623 25.91 376.473 26.3853 375.369 27.336C374.296 28.256 373.529 29.4673 373.069 30.97V45H366.905V31.476C366.905 29.544 366.568 28.1333 365.893 27.244C365.249 26.3547 364.344 25.91 363.179 25.91C361.983 25.91 360.833 26.37 359.729 27.29C358.656 28.21 357.889 29.4213 357.429 30.924V45H351.265V20.896H356.831V25.358C357.751 23.794 358.978 22.598 360.511 21.77C362.044 20.9113 363.808 20.482 365.801 20.482C367.794 20.482 369.343 20.9727 370.447 21.954C371.582 22.9353 372.302 24.1467 372.609 25.588C373.59 23.932 374.832 22.6747 376.335 21.816C377.868 20.9267 379.586 20.482 381.487 20.482C382.99 20.482 384.201 20.758 385.121 21.31C386.072 21.8313 386.808 22.552 387.329 23.472C387.85 24.3613 388.203 25.3733 388.387 26.508C388.602 27.6427 388.709 28.7927 388.709 29.958V45Z" fill="#DD4141"/>
<rect width="45" height="57" rx="5" fill="#DD4141"/>
<path d="M31.862 20.896C31.6473 20.6813 31.2487 20.39 30.666 20.022C30.114 19.654 29.424 19.3013 28.596 18.964C27.7987 18.6267 26.9247 18.3353 25.974 18.09C25.0233 17.814 24.0573 17.676 23.076 17.676C21.3587 17.676 20.0553 17.998 19.166 18.642C18.3073 19.286 17.878 20.1907 17.878 21.356C17.878 22.2453 18.154 22.9507 18.706 23.472C19.258 23.9933 20.086 24.438 21.19 24.806C22.294 25.174 23.674 25.5727 25.33 26.002C27.4767 26.5233 29.332 27.1673 30.896 27.934C32.4907 28.67 33.702 29.6513 34.53 30.878C35.3887 32.074 35.818 33.6687 35.818 35.662C35.818 37.41 35.496 38.9127 34.852 40.17C34.208 41.3967 33.3187 42.3933 32.184 43.16C31.0493 43.9267 29.7613 44.494 28.32 44.862C26.8787 45.1993 25.3453 45.368 23.72 45.368C22.0947 45.368 20.4693 45.1993 18.844 44.862C17.2187 44.5247 15.6547 44.0493 14.152 43.436C12.6493 42.792 11.2693 42.0253 10.012 41.136L12.818 35.662C13.094 35.938 13.5847 36.306 14.29 36.766C14.9953 37.1953 15.854 37.64 16.866 38.1C17.878 38.5293 18.982 38.8973 20.178 39.204C21.374 39.5107 22.5853 39.664 23.812 39.664C25.5293 39.664 26.8327 39.3727 27.722 38.79C28.6113 38.2073 29.056 37.3793 29.056 36.306C29.056 35.3247 28.7033 34.558 27.998 34.006C27.2927 33.454 26.3113 32.9787 25.054 32.58C23.7967 32.1507 22.3093 31.6907 20.592 31.2C18.5373 30.6173 16.82 29.9733 15.44 29.268C14.06 28.532 13.0327 27.612 12.358 26.508C11.6833 25.404 11.346 24.024 11.346 22.368C11.346 20.1293 11.8673 18.2587 12.91 16.756C13.9833 15.2227 15.4247 14.0727 17.234 13.306C19.0433 12.5087 21.052 12.11 23.26 12.11C24.7933 12.11 26.2347 12.2787 27.584 12.616C28.964 12.9533 30.252 13.398 31.448 13.95C32.644 14.502 33.7173 15.1 34.668 15.744L31.862 20.896Z" fill="#FAFAFA"/>
</svg>
